<svg width="50" height="50" viewBox="0 0 50 50" fill="none" xmlns="http://www.w3.org/2000/svg">
<path d="M28.9497 19.668C28.9497 17.5098 27.5955 16.3183 25.217 16.3183H20.842V23.2715H24.5312C27.3785 23.2617 28.9497 21.9726 28.9497 19.668ZM44.8785 18.418C44.0537 15.4004 43.9322 11.6992 44.0277 8.8379C44.1232 5.85938 42.0572 3.125 39.2795 3.125H10.7378C7.95134 3.125 5.89407 5.86915 5.98954 8.8379C6.07634 11.6992 5.96352 15.4004 5.13884 18.418C4.30552 21.4453 2.90794 23.3594 0.607605 23.6035V26.3867C2.89927 26.6307 4.30552 28.545 5.13884 31.5723C5.96352 34.5898 6.08504 38.291 5.98954 41.1522C5.89407 44.1307 7.96004 46.8652 10.7378 46.8652H39.2707C42.0572 46.8652 44.1145 44.121 44.019 41.1522C43.9322 38.291 44.0452 34.5898 44.8697 31.5723C45.703 28.545 47.1007 26.6307 49.3922 26.3867V23.6035C47.1092 23.3594 45.703 21.4453 44.8785 18.418ZM26.059 36.6307H17.5607V13.3594H26.0155C29.7742 13.3594 32.2395 15.6445 32.2395 19.1602C32.2395 21.6308 30.5815 23.8379 28.4635 24.2188V24.3457C31.3455 24.6973 33.2812 26.9432 33.2812 30.039C33.2812 34.1505 30.5642 36.6307 26.059 36.6307ZM25.191 26.0155H20.842V33.6717H25.382C28.3507 33.6717 29.9217 32.334 29.9217 29.8145C29.9217 27.3048 28.3072 26.0155 25.191 26.0155Z" fill="#724DA3"/>
</svg>
