<svg width="52" height="60" viewBox="0 0 52 60" fill="none" xmlns="http://www.w3.org/2000/svg">
<path d="M26 33.75C24.3212 33.75 22.6423 33.1146 21.2103 31.827L0 12.7969V39.375C0 42.4805 2.18258 45 4.875 45H47.125C49.8174 45 52 42.4816 52 39.375V12.7969L30.7938 31.8398C29.3617 33.1172 27.6758 33.75 26 33.75ZM1.65445 9.52734L23.206 28.875C24.8503 30.3516 27.1537 30.3516 28.798 28.875L50.3496 9.52734C51.2992 8.58984 52 7.14844 52 5.625C52 2.51836 49.8164 0 47.125 0H4.875C2.18258 0 0 2.51836 0 5.625C0 7.14844 0.610391 8.58984 1.65445 9.52734Z" fill="white"/>
</svg>
