<svg width="130" height="120" viewBox="0 0 130 120" fill="none" xmlns="http://www.w3.org/2000/svg">
<path d="M4.73956 22.4513C4.73956 10.0518 19.2589 0 37.1695 0H92.8149C110.725 0 125.245 10.0518 125.245 22.4513C125.245 30.3028 119.423 37.2131 110.605 41.2259C119.423 45.2388 125.245 52.1489 125.245 60.0005C125.245 72.4001 110.725 82.452 92.8149 82.452H92.1107C83.7142 82.452 76.0628 80.2427 70.3036 76.6181V97.3048C70.3036 109.87 55.4047 120 37.3442 120C19.4783 120 4.73956 109.979 4.73956 97.5485C4.73956 89.6974 10.5606 82.7876 19.3778 78.7746C10.5606 74.7616 4.73956 67.8516 4.73956 60.0005C4.73956 52.1489 10.5611 45.2388 19.379 41.2259C10.5611 37.2131 4.73956 30.3028 4.73956 22.4513ZM59.6808 44.9032H37.1695C25.1256 44.9032 15.3623 51.6626 15.3623 60.0005C15.3623 68.3063 25.0503 75.0455 37.03 75.0975C37.0764 75.0973 37.1228 75.0973 37.1695 75.0973H59.6808V44.9032ZM70.3036 60.0005C70.3036 68.3384 80.0668 75.0977 92.1107 75.0977H92.8149C104.859 75.0977 114.622 68.3384 114.622 60.0005C114.622 51.6626 104.859 44.9032 92.8149 44.9032H92.1107C80.0668 44.9032 70.3036 51.6626 70.3036 60.0005ZM37.1695 82.452C37.1228 82.452 37.0764 82.4517 37.03 82.4517C25.0503 82.5035 15.3623 89.2427 15.3623 97.5485C15.3623 105.856 25.256 112.646 37.3442 112.646C49.6271 112.646 59.6808 105.747 59.6808 97.3048V82.452H37.1695ZM37.1695 7.35417C25.1256 7.35417 15.3623 14.1134 15.3623 22.4513C15.3623 30.7894 25.1256 37.5485 37.1695 37.5485H59.6808V7.35417H37.1695ZM70.3036 37.5485H92.8149C104.859 37.5485 114.622 30.7894 114.622 22.4513C114.622 14.1134 104.859 7.35417 92.8149 7.35417H70.3036V37.5485Z" fill="black"/>
</svg>
