<svg width="140" height="142" viewBox="0 0 140 142" fill="none" xmlns="http://www.w3.org/2000/svg">
<path d="M46.8266 110.216C46.8266 110.771 46.1774 111.215 45.3589 111.215C44.4274 111.298 43.7782 110.854 43.7782 110.216C43.7782 109.662 44.4274 109.218 45.246 109.218C46.0927 109.135 46.8266 109.579 46.8266 110.216ZM38.0484 108.968C37.8508 109.523 38.4153 110.161 39.2621 110.327C39.996 110.605 40.8427 110.327 41.0121 109.773C41.1815 109.218 40.6452 108.58 39.7984 108.33C39.0645 108.136 38.246 108.414 38.0484 108.968ZM50.5242 108.497C49.7056 108.691 49.1411 109.218 49.2258 109.856C49.3105 110.411 50.0444 110.771 50.8911 110.577C51.7097 110.383 52.2742 109.856 52.1895 109.301C52.1048 108.774 51.3427 108.414 50.5242 108.497ZM69.0968 2.21875C29.9476 2.21875 0 31.423 0 69.8906C0 100.648 19.7016 126.968 47.8427 136.231C51.4556 136.869 52.7258 134.678 52.7258 132.875C52.7258 131.156 52.6411 121.671 52.6411 115.846C52.6411 115.846 32.8831 120.007 28.7339 107.582C28.7339 107.582 25.5161 99.5109 20.8871 97.4309C20.8871 97.4309 14.4234 93.0766 21.3387 93.1598C21.3387 93.1598 28.3669 93.7145 32.2339 100.315C38.4153 111.021 48.7742 107.942 52.8105 106.112C53.4597 101.674 55.2944 98.5957 57.3266 96.7652C41.5484 95.0457 25.629 92.7992 25.629 66.1187C25.629 58.4918 27.7742 54.6645 32.2903 49.7832C31.5565 47.9805 29.1573 40.5477 33.0242 30.9516C38.9234 29.1488 52.5 38.4398 52.5 38.4398C58.1452 36.8867 64.2137 36.0824 70.2258 36.0824C76.2379 36.0824 82.3064 36.8867 87.9516 38.4398C87.9516 38.4398 101.528 29.1211 107.427 30.9516C111.294 40.5754 108.895 47.9805 108.161 49.7832C112.677 54.6922 115.444 58.5195 115.444 66.1187C115.444 92.8824 98.8186 95.018 83.0403 96.7652C85.6371 98.9562 87.8387 103.116 87.8387 109.634C87.8387 118.98 87.754 130.546 87.754 132.82C87.754 134.623 89.0524 136.814 92.6371 136.176C120.863 126.968 140 100.648 140 69.8906C140 31.423 108.246 2.21875 69.0968 2.21875ZM27.4355 97.8746C27.0685 98.152 27.1532 98.7898 27.6331 99.3168C28.0847 99.7606 28.7339 99.9547 29.1008 99.5941C29.4677 99.3168 29.3831 98.6789 28.9032 98.152C28.4516 97.7082 27.8024 97.5141 27.4355 97.8746ZM24.3871 95.6281C24.1895 95.9887 24.4718 96.4324 25.0363 96.7098C25.4879 96.9871 26.0524 96.9039 26.25 96.5156C26.4476 96.1551 26.1653 95.7113 25.6008 95.434C25.0363 95.2676 24.5847 95.3508 24.3871 95.6281ZM33.5323 105.502C33.0806 105.862 33.25 106.694 33.8992 107.221C34.5484 107.859 35.3669 107.942 35.7339 107.498C36.1008 107.138 35.9315 106.306 35.3669 105.779C34.746 105.141 33.8992 105.058 33.5323 105.502ZM30.3145 101.425C29.8629 101.702 29.8629 102.423 30.3145 103.061C30.7661 103.699 31.5282 103.976 31.8952 103.699C32.3468 103.338 32.3468 102.617 31.8952 101.979C31.5 101.341 30.7661 101.064 30.3145 101.425Z" fill="black"/>
</svg>
