<svg width="50" height="44" viewBox="0 0 50 44" fill="none" xmlns="http://www.w3.org/2000/svg">
<path d="M0 0V43.75H50V0H0ZM27.2097 34.121C27.2097 38.379 24.3527 40.3223 20.1897 40.3223C16.4286 40.3223 14.2522 38.623 13.1362 36.5625L16.9643 34.541C17.7009 35.6835 18.3705 36.6505 19.9888 36.6505C21.529 36.6505 22.5112 36.123 22.5112 34.0625V20.0879H27.2097V34.121ZM38.326 40.3223C33.962 40.3223 31.1385 38.5058 29.7658 36.123L33.5938 34.1895C34.5983 35.625 35.9152 36.6895 38.2255 36.6895C40.1675 36.6895 41.4175 35.8397 41.4175 34.6582C41.4175 33.252 40.145 32.754 37.991 31.9238L36.8192 31.4842C33.4262 30.2245 31.183 28.6328 31.183 25.2833C31.183 22.1973 33.8727 19.8535 38.058 19.8535C41.049 19.8535 43.192 20.7617 44.7323 23.1445L41.0715 25.1952C40.2677 23.9355 39.3972 23.4375 38.0467 23.4375C36.674 23.4375 35.8035 24.1992 35.8035 25.1952C35.8035 26.4257 36.674 26.9237 38.6942 27.6952L39.866 28.1348C43.8615 29.629 46.105 31.162 46.105 34.5995C46.105 38.291 42.779 40.3223 38.326 40.3223Z" fill="#FDF30B"/>
</svg>
